<svg xmlns="http://www.w3.org/2000/svg" width="20" height="20" viewBox="0 0 20 20">
  <path fill-rule="evenodd" d="M10,1 C11.1045695,1 12,1.8954305 12,3 L16,3 C16.5522847,3 17,3.44771525 17,4 L17,17 C17,17.5522847 16.5522847,18 16,18 L4,18 C3.44771525,18 3,17.5522847 3,17 L3,4 C3,3.44771525 3.44771525,3 4,3 L8,2.9989959 C8.0005427,1.8948879 8.89576522,1 10,1 Z M7,5 L5,5 L5,16 L15,16 L15,5 L13,5 L13,7 L7,7 L7,5 Z M10,2.25 C9.58578644,2.25 9.25,2.58578644 9.25,3 C9.25,3.41421356 9.58578644,3.75 10,3.75 C10.4142136,3.75 10.75,3.41421356 10.75,3 C10.75,2.58578644 10.4142136,2.25 10,2.25 Z"/>
</svg>
