<svg xmlns="http://www.w3.org/2000/svg" viewBox="0 0 71 41" fill="currentColor" width="1em" height="1em">
  <path d="M11.912 37c1.39 0 2.752-.29 4.083-.87a11.58 11.58 0 003.498-2.33c1-.976 1.806-2.146 2.415-3.51.61-1.365.915-2.79.915-4.274a10.42 10.42 0 00-.915-4.281c-.61-1.37-1.414-2.543-2.415-3.518-1-.975-2.166-1.755-3.498-2.34A10.063 10.063 0 0011.912 15c-1.391 0-2.755.292-4.092.877a11.734 11.734 0 00-3.49 2.34c-1 .975-1.806 2.148-2.415 3.518A10.42 10.42 0 001 26.016c0 1.484.305 2.909.915 4.274.61 1.364 1.414 2.534 2.415 3.51a11.58 11.58 0 003.498 2.33c1.332.58 2.693.87 4.084.87zm.674-1.397c-.77 0-1.482-.15-2.135-.447a4.886 4.886 0 01-1.668-1.235 8.792 8.792 0 01-1.212-1.812 10.577 10.577 0 01-.826-2.242 20.329 20.329 0 01-.61-4.988c0-.823.05-1.622.152-2.397.102-.774.276-1.535.522-2.283a7.81 7.81 0 01.93-1.95c.375-.552.854-.999 1.437-1.34a3.819 3.819 0 011.965-.512c.92 0 1.757.217 2.512.65a5.704 5.704 0 011.869 1.714c.492.71.904 1.539 1.236 2.486.331.948.57 1.918.714 2.909.144.991.216 2.001.216 3.03 0 .823-.053 1.62-.16 2.389-.107.769-.286 1.524-.538 2.266a7.71 7.71 0 01-.946 1.934 4.37 4.37 0 01-1.46 1.324c-.594.336-1.26.504-1.998.504zm22.163 1.202c.065-.097.1-.292.105-.585.005-.292-.03-.498-.105-.617-1.465-.12-2.251-.314-2.358-.585-.172-.434-.257-1.452-.257-3.055V28c0-.455.211-1.008.634-1.658.422-.65.928-.975 1.516-.975.107 0 .203.011.289.033a.791.791 0 01.257.122c.085.06.152.108.2.146.048.038.12.103.217.195.096.092.16.154.192.187l.273.243c.171.152.292.252.361.301.07.049.177.106.321.17.145.066.286.098.425.098.514 0 .963-.279 1.348-.837.385-.557.578-1.134.578-1.73 0-.314-.04-.628-.12-.942-.08-.315-.158-.531-.233-.65-.396-.369-1.07-.553-2.022-.553-.481 0-.933.098-1.356.293a3.673 3.673 0 00-1.14.828 8.596 8.596 0 00-.834 1.016c-.219.32-.446.69-.682 1.113-.01.021-.032.035-.064.04a.107.107 0 01-.088-.024c-.027-.022-.04-.06-.04-.114 0-.238.043-.693.128-1.365.086-.671.15-1.072.193-1.202 0-.054-.064-.152-.193-.292-.128-.141-.246-.228-.353-.26-.716.368-1.66.725-2.832 1.072a16.618 16.618 0 01-3.426.65c-.075 0-.112.16-.112.48 0 .319.027.495.08.527.246 0 .618.057 1.115.171.498.114.8.273.907.48.192.368.289 1.256.289 2.664v3.737c0 1.603-.086 2.621-.257 3.055-.107.292-.792.487-2.054.585-.075.119-.11.325-.104.617.005.293.04.488.104.585a42.69 42.69 0 014.397-.227c1.68 0 3.247.075 4.701.227zm12.344.163c.717 0 1.415-.12 2.094-.358a6.803 6.803 0 001.757-.894c.492-.357.899-.696 1.22-1.015.32-.32.567-.615.738-.886.064-.097.096-.303.096-.617a.685.685 0 00-.112-.35.492.492 0 00-.273-.235c-.974 1.083-2.172 1.625-3.595 1.625-.556 0-1.09-.1-1.604-.3a4.636 4.636 0 01-1.468-.951c-.466-.434-.84-1.054-1.124-1.86-.283-.808-.425-1.753-.425-2.836 0-.682.086-1.362.257-2.04.171-.676.433-1.253.786-1.73.353-.476.754-.715 1.204-.715.866 0 1.594.336 2.182 1.008.053.054.155.176.305.365.15.19.267.328.353.415.085.086.203.195.353.325.15.13.3.222.45.276.149.054.304.081.464.081.546 0 .993-.208 1.34-.625.348-.417.522-.88.522-1.39 0-.563-.214-1.083-.642-1.56-.225-.14-.623-.273-1.195-.397-.573-.125-1.255-.187-2.046-.187-1.08 0-2.137.235-3.17.706a9.21 9.21 0 00-2.687 1.837 9.068 9.068 0 00-1.83 2.591c-.46.975-.69 1.95-.69 2.925 0 1.375.313 2.586.94 3.631.625 1.046 1.446 1.834 2.462 2.364 1.016.531 2.129.797 3.338.797zm12.408-.033c.502 0 1.166-.222 1.99-.666.823-.444 1.369-.785 1.636-1.024.15.412.465.786.947 1.121.481.336.979.504 1.492.504.407 0 .861-.12 1.364-.357.503-.239.896-.469 1.18-.691.283-.222.537-.436.762-.642a.92.92 0 00.128-.487c0-.293-.075-.477-.225-.553l-.128.065c-.086.044-.16.087-.225.13-.064.022-.15.049-.256.082a1.1 1.1 0 01-.321.048c-.225 0-.41-.116-.554-.349-.144-.233-.217-.56-.217-.983v-6.077c0-1.44-.465-2.63-1.396-3.566-.93-.937-2.07-1.406-3.417-1.406-1.21 0-2.432.314-3.667.943-1.236.628-2.057 1.148-2.463 1.56-.3.53-.45.974-.45 1.332 0 .444.166.815.498 1.113.332.298.722.447 1.171.447.995 0 1.594-.477 1.798-1.43.074-.358.141-.642.2-.853.059-.212.14-.453.24-.723.102-.271.212-.48.33-.626.117-.146.27-.27.457-.374.187-.102.399-.154.634-.154.545 0 .997.33 1.356.991.358.661.537 1.414.537 2.259v1.527l-1.901.747c-.883.347-1.688.658-2.415.935-.728.276-1.268.474-1.62.593-.44.14-.827.457-1.164.95a2.856 2.856 0 00-.506 1.65c0 1.007.407 1.92 1.22 2.737.813.818 1.808 1.227 2.985 1.227zm2.086-2.275c-.482 0-.926-.176-1.332-.528-.407-.352-.615-.847-.626-1.487-.043-.92.342-1.646 1.155-2.177.257-.162.658-.368 1.204-.617.545-.25.85-.39.914-.423v4.55c0 .119-.128.263-.385.43-.256.168-.567.252-.93.252z"/>
  <path d="M40.945 3.004c1.093-.07 2.136.778 2.672 1.676.266.445.375 1.025.795 1.36.7.558 1.896.707 2.705 1.14 1.994 1.067 3.623 2.89 4.323 5.081.258.806.445 1.684.526 2.527.06.634.023 1.29.02 1.926v.13c-.003.28-.012.562-.096.832-.299.966-1.247 1.313-2.16 1.324-1.654.02-3.09-.632-4.631-1.14l-.125-.041c-.485-.153-1.038-.284-1.538-.249-.895.064-1.846.525-2.73.722-1.977.44-4.647.53-6.468-.5l-.063-.036c-.447-.262-1.095-.8-.64-1.366.384-.48 1.557-.59 2.146-.847l.192-.087c.25-.117.56-.283.601-.549.058-.365-.535-.663-.755-.863-.768-.695-1.318-2.036-2.257-2.481-.639-.302-1.247.3-.954.939.196.428.526.77.717 1.203-1.389.771-2.329 1.728-3.28 3.009-.515.692-1.038 1.78-1.945 1.925 0-1.771.957-3.006 1.622-4.573.365-.86.458-1.79.858-2.647.84-1.8 2.328-3.198 4.05-4.118 1.168-.623 2.405-.973 3.682-1.282.557-.134 1.267-.096 1.768-.396 1.012-.606-.408-2.532.965-2.619zm3.252 9.23c-.728.813-.34 2.421.867 3.592 1.207 1.17 2.776 1.461 3.505.649.728-.813.34-2.42-.867-3.591-1.207-1.171-2.776-1.462-3.505-.65z"/>
</svg>
