<svg xmlns="http://www.w3.org/2000/svg" viewBox="0 0 29 21" fill="currentColor" width="1em" height="1em">
    <path d="M14.945 2.004c1.093-.07 2.136.778 2.672 1.676.266.445.375 1.025.795 1.36.7.558 1.896.707 2.705 1.14 1.994 1.067 3.623 2.89 4.323 5.081.258.806.445 1.684.526 2.527.06.634.023 1.29.02 1.926v.13c-.003.28-.012.562-.096.832-.299.966-1.247 1.313-2.16 1.324-1.654.02-3.09-.632-4.631-1.14l-.125-.041c-.485-.153-1.038-.284-1.538-.249-.895.064-1.846.525-2.73.722-1.977.44-4.647.53-6.468-.5l-.063-.036c-.447-.262-1.095-.8-.64-1.366.384-.48 1.557-.59 2.146-.847l.192-.087c.25-.117.56-.283.601-.549.058-.365-.535-.663-.755-.863-.768-.695-1.318-2.036-2.257-2.481-.639-.302-1.247.3-.954.939.196.428.526.77.717 1.203-1.389.771-2.329 1.728-3.28 3.009-.515.692-1.038 1.78-1.945 1.925 0-1.771.957-3.006 1.622-4.573.365-.86.458-1.79.858-2.647.84-1.8 2.328-3.198 4.05-4.118 1.168-.623 2.405-.973 3.682-1.282.557-.134 1.267-.096 1.768-.396 1.012-.606-.408-2.532.965-2.619zm3.252 9.23c-.728.813-.34 2.421.867 3.592 1.207 1.17 2.776 1.461 3.505.649.728-.813.34-2.42-.867-3.591-1.207-1.171-2.776-1.462-3.505-.65z"/>
</svg>
