<svg xmlns="http://www.w3.org/2000/svg" width="20" height="20" viewBox="0 0 20 20">
  <path fill-rule="evenodd" d="M10,2 C14.418278,2 18,5.581722 18,10 C18,14.418278 14.418278,18 10,18 C5.581722,18 2,14.418278 2,10 C2,5.581722 5.581722,2 10,2 Z M5.80761184,14.2928932 L5.10050506,15 C6.39140481,16.2908997 8.06105618,16.9722079 9.7517493,17.0439246 L10.0502525,17.0502525 L10.0502525,16.0502525 C8.51471863,16.0502525 6.97918472,15.4644661 5.80761184,14.2928932 Z M10,5 C7.23857625,5 5,7.23857625 5,10 C5,12.7614237 7.23857625,15 10,15 C12.7614237,15 15,12.7614237 15,10 C15,7.23857625 12.7614237,5 10,5 Z M17,10 L16,10 C16,11.5355339 15.4142136,13.0710678 14.2426407,14.2426407 L14.9497475,14.9497475 C16.3165825,13.5829124 17,11.7914562 17,10 Z M5.05025253,5.05025253 C3.68341751,6.41708755 3,8.20854378 3,10 L4,10 C4,8.46446609 4.58578644,6.92893219 5.75735931,5.75735931 L5.05025253,5.05025253 Z M10.0502525,3.05025253 L10.0502525,4.05025253 C11.5857864,4.05025253 13.1213203,4.63603897 14.2928932,5.80761184 L15,5.10050506 C13.633165,3.73367004 11.8417088,3.05025253 10.0502525,3.05025253 Z"/>
</svg>
